<svg xmlns="http://www.w3.org/2000/svg" fill="none" viewBox="0 0 48 48" id="Remote-Gen--Streamline-Rounded-Material"><desc>Remote Gen Streamline Icon: https://streamlinehq.com</desc><path fill="#06b6d4" d="M15 46c-0.825 0 -1.5312 -0.2938 -2.1185 -0.8815C12.2938 44.5312 12 43.825 12 43V5c0 -0.825 0.2938 -1.53133 0.8815 -2.119C13.4688 2.29367 14.175 2 15 2h18c0.825 0 1.5313 0.29367 2.119 0.881C35.7063 3.46867 36 4.175 36 5v38c0 0.825 -0.2937 1.5312 -0.881 2.1185C34.5313 45.7062 33.825 46 33 46H15Zm0 -3h18V5H15v38Zm9.006 -23.5c1.5293 0 2.8273 -0.5353 3.894 -1.606s1.6 -2.3707 1.6 -3.9 -0.5353 -2.8273 -1.606 -3.894c-1.0707 -1.06667 -2.3707 -1.6 -3.9 -1.6s-2.8273 0.53533 -3.894 1.606c-1.0667 1.0707 -1.6 2.3707 -1.6 3.9s0.5353 2.8273 1.606 3.894 2.3707 1.6 3.9 1.6Zm0.003 -3c-0.706 0 -1.3007 -0.2387 -1.784 -0.716 -0.4833 -0.4777 -0.725 -1.0693 -0.725 -1.775 0 -0.706 0.2387 -1.3007 0.716 -1.784 0.4777 -0.4833 1.0693 -0.725 1.775 -0.725 0.706 0 1.3007 0.2387 1.784 0.716 0.4833 0.4777 0.725 1.0693 0.725 1.775 0 0.706 -0.2387 1.3007 -0.716 1.784 -0.4777 0.4833 -1.0693 0.725 -1.775 0.725Zm-4 11c0.4273 0 0.7827 -0.1447 1.066 -0.434 0.2833 -0.289 0.425 -0.6473 0.425 -1.075 0 -0.4273 -0.1447 -0.7827 -0.434 -1.066 -0.289 -0.2833 -0.6473 -0.425 -1.075 -0.425 -0.4273 0 -0.7827 0.1447 -1.066 0.434 -0.2833 0.289 -0.425 0.6473 -0.425 1.075 0 0.4273 0.1447 0.7827 0.434 1.066 0.289 0.2833 0.6473 0.425 1.075 0.425Zm8 0c0.4273 0 0.7827 -0.1447 1.066 -0.434 0.2833 -0.289 0.425 -0.6473 0.425 -1.075 0 -0.4273 -0.1447 -0.7827 -0.434 -1.066 -0.289 -0.2833 -0.6473 -0.425 -1.075 -0.425 -0.4273 0 -0.7827 0.1447 -1.066 0.434 -0.2833 0.289 -0.425 0.6473 -0.425 1.075 0 0.4273 0.1447 0.7827 0.434 1.066 0.289 0.2833 0.6473 0.425 1.075 0.425Zm-8 6c0.4273 0 0.7827 -0.1447 1.066 -0.434 0.2833 -0.289 0.425 -0.6473 0.425 -1.075 0 -0.4273 -0.1447 -0.7827 -0.434 -1.066 -0.289 -0.2833 -0.6473 -0.425 -1.075 -0.425 -0.4273 0 -0.7827 0.1447 -1.066 0.434 -0.2833 0.289 -0.425 0.6473 -0.425 1.075 0 0.4273 0.1447 0.7827 0.434 1.066 0.289 0.2833 0.6473 0.425 1.075 0.425Zm8 0c0.4273 0 0.7827 -0.1447 1.066 -0.434 0.2833 -0.289 0.425 -0.6473 0.425 -1.075 0 -0.4273 -0.1447 -0.7827 -0.434 -1.066 -0.289 -0.2833 -0.6473 -0.425 -1.075 -0.425 -0.4273 0 -0.7827 0.1447 -1.066 0.434 -0.2833 0.289 -0.425 0.6473 -0.425 1.075 0 0.4273 0.1447 0.7827 0.434 1.066 0.289 0.2833 0.6473 0.425 1.075 0.425Zm-8 6c0.4273 0 0.7827 -0.1447 1.066 -0.434 0.2833 -0.289 0.425 -0.6473 0.425 -1.075 0 -0.4273 -0.1447 -0.7827 -0.434 -1.066 -0.289 -0.2833 -0.6473 -0.425 -1.075 -0.425 -0.4273 0 -0.7827 0.1447 -1.066 0.434 -0.2833 0.289 -0.425 0.6473 -0.425 1.075 0 0.4273 0.1447 0.7827 0.434 1.066 0.289 0.2833 0.6473 0.425 1.075 0.425Zm8 0c0.4273 0 0.7827 -0.1447 1.066 -0.434 0.2833 -0.289 0.425 -0.6473 0.425 -1.075 0 -0.4273 -0.1447 -0.7827 -0.434 -1.066 -0.289 -0.2833 -0.6473 -0.425 -1.075 -0.425 -0.4273 0 -0.7827 0.1447 -1.066 0.434 -0.2833 0.289 -0.425 0.6473 -0.425 1.075 0 0.4273 0.1447 0.7827 0.434 1.066 0.289 0.2833 0.6473 0.425 1.075 0.425Z" stroke-width="1"></path></svg>